<svg width="60" height="60" viewBox="0 0 60 60" fill="none" xmlns="http://www.w3.org/2000/svg">
<path d="M56.2277 30.2754C55.1043 30.1371 54.5434 29.5277 54.5449 28.4473C54.5488 26.3019 54.5492 24.1633 54.5461 22.0312C54.5461 22.0182 54.5409 22.0057 54.5317 21.9964C54.5225 21.9872 54.5099 21.982 54.4969 21.982H5.48438C5.45235 21.982 5.43634 21.998 5.43634 22.0301C5.43165 30.3746 5.43321 38.6391 5.44102 46.8234C5.44181 47.6461 5.67149 48.3836 6.13009 49.0359C6.94884 50.2008 8.10196 50.7844 9.58946 50.7867C13.6129 50.793 17.8988 50.7914 22.4473 50.782C22.8363 50.7812 23.1676 50.8398 23.441 50.9578C24.0121 51.2039 24.3402 51.7101 24.4254 52.4766" stroke="#74BDD1" stroke-width="5"/>
<path d="M54.3984 12.1184C53.8594 10.3512 52.3371 9.19922 50.4867 9.19922C36.9641 9.20079 23.4246 9.19962 9.86836 9.19571C9.28867 9.19571 8.83711 9.23399 8.51367 9.31055C7.15195 9.63399 6.06914 10.6582 5.62735 11.9824C5.49219 12.3863 5.42735 12.9379 5.43281 13.6371C5.44453 15.3652 5.4457 16.9969 5.43633 18.532C5.43633 18.5813 5.46094 18.6059 5.51016 18.6059H54.4875C54.4964 18.6059 54.5052 18.6041 54.5133 18.6008C54.5215 18.5974 54.5289 18.5924 54.5352 18.5862C54.5414 18.58 54.5463 18.5726 54.5496 18.5645C54.5528 18.5564 54.5545 18.5478 54.5543 18.5391C54.5387 17.1336 54.5395 15.7219 54.5566 14.3039C54.5699 13.2352 54.5172 12.5066 54.3984 12.1184Z" stroke="#8DC1D4" stroke-width="5"/>
<path d="M13.4203 13.8937C13.4203 13.6817 13.3785 13.4717 13.2974 13.2758C13.2162 13.0798 13.0973 12.9018 12.9473 12.7519C12.7974 12.6019 12.6194 12.483 12.4234 12.4018C12.2275 12.3207 12.0175 12.2789 11.8055 12.2789C11.3772 12.2789 10.9664 12.449 10.6636 12.7519C10.3608 13.0547 10.1906 13.4655 10.1906 13.8937C10.1906 14.322 10.3608 14.7328 10.6636 15.0356C10.9664 15.3385 11.3772 15.5086 11.8055 15.5086C12.0175 15.5086 12.2275 15.4668 12.4234 15.3857C12.6194 15.3045 12.7974 15.1856 12.9473 15.0356C13.0973 14.8857 13.2162 14.7076 13.2974 14.5117C13.3785 14.3158 13.4203 14.1058 13.4203 13.8937Z" stroke="#8DC1D4" stroke-width="5"/>
<path d="M19.1297 13.8937C19.1297 13.4655 18.9595 13.0547 18.6567 12.7519C18.3539 12.449 17.9431 12.2789 17.5148 12.2789C17.0866 12.2789 16.6758 12.449 16.373 12.7519C16.0701 13.0547 15.9 13.4655 15.9 13.8937C15.9 14.322 16.0701 14.7328 16.373 15.0356C16.6758 15.3385 17.0866 15.5086 17.5148 15.5086C17.9431 15.5086 18.3539 15.3385 18.6567 15.0356C18.9595 14.7328 19.1297 14.322 19.1297 13.8937Z" stroke="#8DC1D4" stroke-width="5"/>
<path d="M24.8391 13.8949C24.8391 13.4667 24.6689 13.0559 24.3661 12.7531C24.0632 12.4502 23.6525 12.2801 23.2242 12.2801C22.7959 12.2801 22.3852 12.4502 22.0824 12.7531C21.7795 13.0559 21.6094 13.4667 21.6094 13.8949C21.6094 14.3232 21.7795 14.734 22.0824 15.0368C22.3852 15.3396 22.7959 15.5098 23.2242 15.5098C23.6525 15.5098 24.0632 15.3396 24.3661 15.0368C24.6689 14.734 24.8391 14.3232 24.8391 13.8949Z" stroke="#8DC1D4" stroke-width="5"/>
<path d="M32.7316 37.316C32.3191 37.5098 31.9332 37.7613 31.5738 38.0707C31.5584 38.084 31.546 38.1004 31.5375 38.119C31.529 38.1377 31.5246 38.158 31.5246 38.1785V49.2153C31.5246 49.2195 31.5257 49.2238 31.5278 49.2275C31.5298 49.2313 31.5328 49.2345 31.5364 49.2368C31.54 49.2392 31.5442 49.2405 31.5484 49.2409C31.5527 49.2412 31.557 49.2405 31.5609 49.2387C34.8125 47.8738 38.0684 47.8856 41.3285 49.2738C41.331 49.2748 41.3337 49.2751 41.3363 49.2748C41.3389 49.2745 41.3415 49.2736 41.3436 49.2721C41.3458 49.2706 41.3476 49.2686 41.3489 49.2662C41.3501 49.2639 41.3508 49.2613 41.3508 49.2586V38.1774C41.3508 38.1686 41.3488 38.16 41.345 38.1521C41.3411 38.1441 41.3355 38.1372 41.3285 38.1317C38.9074 36.1746 35.4445 36.041 32.7316 37.316Z" stroke="#8DC1D4" stroke-width="5"/>
<path d="M44.7656 49.2867C48.0508 47.9555 51.2942 47.9336 54.4957 49.2211C54.5324 49.2359 54.5508 49.2234 54.5508 49.1836V38.134C54.5508 38.1212 54.5478 38.1085 54.5421 38.0969C54.5365 38.0853 54.5282 38.0752 54.518 38.0672C53.8289 37.5211 53.0793 37.1266 52.2692 36.8836C49.6922 36.1102 46.9055 36.4371 44.7785 38.1047C44.7457 38.1305 44.7293 38.1637 44.7293 38.2043V49.2621C44.7294 49.2666 44.7306 49.2709 44.7326 49.2748C44.7347 49.2787 44.7377 49.282 44.7413 49.2845C44.7449 49.2869 44.749 49.2884 44.7533 49.2888C44.7575 49.2892 44.7617 49.2885 44.7656 49.2867Z" stroke="#8DC1D4" stroke-width="5"/>
<path d="M56.2277 30.2754C55.1043 30.1371 54.5434 29.5277 54.5449 28.4473C54.5488 26.302 54.5492 24.1633 54.5461 22.0313C54.5461 22.0182 54.5409 22.0057 54.5317 21.9965C54.5225 21.9872 54.5099 21.982 54.4969 21.982H5.48438C5.45235 21.982 5.43633 21.9981 5.43633 22.0301C5.43165 30.3746 5.43321 38.6391 5.44102 46.8235C5.4418 47.6461 5.67149 48.3836 6.13008 49.0359C6.94883 50.2008 8.10196 50.7844 9.58946 50.7867C13.6129 50.793 17.8988 50.7914 22.4473 50.782C22.8363 50.7813 23.1676 50.8399 23.441 50.9578C24.0121 51.2039 24.3402 51.7102 24.4254 52.4766C24.3129 53.5711 23.5992 54.1746 22.5504 54.1711C18.602 54.1563 14.5941 54.1578 10.527 54.1758C9.49962 54.1805 8.72813 54.1399 8.21251 54.0539C5.1586 53.5418 2.69297 51.102 2.17618 48.0551C2.09805 47.5934 2.05938 46.9418 2.06016 46.1004C2.06407 34.5012 2.0668 23.5145 2.06836 13.1402C2.06954 9.67736 4.56329 6.71954 7.94766 5.98595C8.42813 5.88204 9.19649 5.83009 10.2527 5.83009C23.4262 5.83009 36.5027 5.8297 49.4824 5.82892C50.5973 5.82892 51.3766 5.86681 51.8203 5.94259C54.8742 6.46173 57.3211 8.94025 57.8098 12.0012C57.8902 12.5012 57.9297 13.116 57.9281 13.8457C57.9164 18.6785 57.9149 23.591 57.9234 28.5832C57.9234 28.7934 57.8617 29.0336 57.7383 29.3039C57.4828 29.8649 56.9793 30.1887 56.2277 30.2754ZM54.3984 12.1184C53.8594 10.3512 52.3371 9.19923 50.4867 9.19923C36.9641 9.20079 23.4246 9.19962 9.86837 9.19572C9.28868 9.19572 8.83712 9.234 8.51368 9.31056C7.15196 9.634 6.06915 10.6582 5.62735 11.9824C5.49219 12.3863 5.42735 12.9379 5.43282 13.6371C5.44454 15.3652 5.44571 16.9969 5.43633 18.532C5.43633 18.5813 5.46094 18.6059 5.51016 18.6059H54.4875C54.4964 18.6059 54.5052 18.6041 54.5133 18.6008C54.5215 18.5974 54.5289 18.5924 54.5352 18.5862C54.5414 18.58 54.5463 18.5726 54.5496 18.5645C54.5528 18.5564 54.5545 18.5478 54.5543 18.5391C54.5387 17.1336 54.5395 15.7219 54.5566 14.3039C54.5699 13.2352 54.5172 12.5067 54.3984 12.1184Z" fill="#6BE1A6"/>
<path d="M50.4867 9.19922C52.3371 9.19922 53.8594 10.3512 54.3984 12.1184C54.5172 12.5066 54.5699 13.2352 54.5566 14.3039C54.5395 15.7219 54.5387 17.1336 54.5543 18.5391C54.5545 18.5478 54.5528 18.5564 54.5496 18.5645C54.5463 18.5726 54.5414 18.58 54.5352 18.5862C54.5289 18.5924 54.5215 18.5974 54.5133 18.6008C54.5052 18.6041 54.4964 18.6059 54.4875 18.6059H5.51016C5.46094 18.6059 5.43633 18.5813 5.43633 18.532C5.4457 16.9969 5.44453 15.3652 5.43281 13.6371C5.42735 12.9379 5.49219 12.3863 5.62735 11.9824C6.06914 10.6582 7.15195 9.63399 8.51367 9.31055C8.83711 9.23399 9.28867 9.19571 9.86836 9.19571C23.4246 9.19962 36.9641 9.20079 50.4867 9.19922ZM13.4203 13.8938C13.4203 13.6817 13.3785 13.4717 13.2974 13.2758C13.2162 13.0799 13.0973 12.9018 12.9473 12.7519C12.7974 12.6019 12.6194 12.483 12.4234 12.4018C12.2275 12.3207 12.0175 12.2789 11.8055 12.2789C11.3772 12.2789 10.9664 12.449 10.6636 12.7519C10.3608 13.0547 10.1906 13.4655 10.1906 13.8938C10.1906 14.322 10.3608 14.7328 10.6636 15.0356C10.9664 15.3385 11.3772 15.5086 11.8055 15.5086C12.0175 15.5086 12.2275 15.4668 12.4234 15.3857C12.6194 15.3045 12.7974 15.1856 12.9473 15.0356C13.0973 14.8857 13.2162 14.7077 13.2974 14.5117C13.3785 14.3158 13.4203 14.1058 13.4203 13.8938ZM19.1297 13.8938C19.1297 13.4655 18.9596 13.0547 18.6567 12.7519C18.3539 12.449 17.9431 12.2789 17.5148 12.2789C17.0866 12.2789 16.6758 12.449 16.373 12.7519C16.0701 13.0547 15.9 13.4655 15.9 13.8938C15.9 14.322 16.0701 14.7328 16.373 15.0356C16.6758 15.3385 17.0866 15.5086 17.5148 15.5086C17.9431 15.5086 18.3539 15.3385 18.6567 15.0356C18.9596 14.7328 19.1297 14.322 19.1297 13.8938ZM24.8391 13.8949C24.8391 13.4666 24.6689 13.0559 24.3661 12.7531C24.0632 12.4502 23.6525 12.2801 23.2242 12.2801C22.7959 12.2801 22.3852 12.4502 22.0824 12.7531C21.7795 13.0559 21.6094 13.4666 21.6094 13.8949C21.6094 14.3232 21.7795 14.734 22.0824 15.0368C22.3852 15.3396 22.7959 15.5098 23.2242 15.5098C23.6525 15.5098 24.0632 15.3396 24.3661 15.0368C24.6689 14.734 24.8391 14.3232 24.8391 13.8949Z" fill="white"/>
<path d="M11.8055 15.5086C12.6973 15.5086 13.4203 14.7856 13.4203 13.8937C13.4203 13.0019 12.6973 12.2789 11.8055 12.2789C10.9136 12.2789 10.1906 13.0019 10.1906 13.8937C10.1906 14.7856 10.9136 15.5086 11.8055 15.5086Z" fill="#6BE1A6"/>
<path d="M17.5148 15.5086C18.4067 15.5086 19.1297 14.7856 19.1297 13.8937C19.1297 13.0019 18.4067 12.2789 17.5148 12.2789C16.623 12.2789 15.9 13.0019 15.9 13.8937C15.9 14.7856 16.623 15.5086 17.5148 15.5086Z" fill="#6BE1A6"/>
<path d="M23.2242 15.5098C24.1161 15.5098 24.8391 14.7868 24.8391 13.8949C24.8391 13.0031 24.1161 12.2801 23.2242 12.2801C22.3324 12.2801 21.6094 13.0031 21.6094 13.8949C21.6094 14.7868 22.3324 15.5098 23.2242 15.5098Z" fill="#6BE1A6"/>
<path d="M56.2277 30.2754V35.1211C52.4016 32.4281 46.9383 32.4445 43.0957 35.0941C43.0598 35.1191 43.0238 35.1191 42.9879 35.0941C39.0656 32.407 33.4863 32.4199 29.6637 35.2605C29.0086 35.7469 28.4637 36.3152 28.2527 37.1332C28.1871 37.3879 28.1543 37.8113 28.1543 38.4035C28.1551 42.1941 28.1543 46.0242 28.1519 49.8937C28.1512 51.0047 28.6523 51.8656 29.6555 52.4766H24.4254C24.3402 51.7101 24.0121 51.2039 23.441 50.9578C23.1676 50.8398 22.8363 50.7812 22.4473 50.782C17.8988 50.7914 13.6129 50.793 9.58945 50.7867C8.10195 50.7844 6.94882 50.2008 6.13007 49.0359C5.67148 48.3836 5.44179 47.6461 5.44101 46.8234C5.4332 38.6391 5.43163 30.3746 5.43632 22.0301C5.43632 21.998 5.45234 21.982 5.48437 21.982H54.4969C54.5099 21.982 54.5224 21.9872 54.5317 21.9964C54.5409 22.0057 54.5461 22.0182 54.5461 22.0312C54.5492 24.1633 54.5488 26.3019 54.5449 28.4473C54.5434 29.5277 55.1043 30.1371 56.2277 30.2754Z" fill="#CDF6F9"/>
<path d="M56.2277 35.1211C56.9625 35.6894 57.4887 36.1265 57.7711 36.9691C57.875 37.2816 57.9266 37.6711 57.9258 38.1375C57.9219 42.1703 57.9215 46.0652 57.9246 49.8222C57.9258 51.7816 56.2371 53.1738 54.3094 52.7918C54.0953 52.7496 53.8031 52.6414 53.4328 52.4672C53.1469 52.3328 52.859 52.2094 52.5691 52.0969C51.3809 51.6789 50.1269 51.5285 48.8074 51.6457C47.741 51.7402 46.759 52.0156 45.8613 52.4719C45.7176 52.5367 45.5687 52.6172 45.4148 52.7133C45.0016 52.9719 44.643 53.2582 44.3391 53.5722C43.6477 54.2847 42.5566 54.4113 41.8312 53.6543C41.3961 53.1996 40.9 52.8254 40.343 52.5316C40.2914 52.5047 40.2387 52.5058 40.1906 52.4789C40.1891 52.4555 40.1609 52.4312 40.1062 52.4062C38.6758 51.7484 37.1723 51.4937 35.5957 51.6422C34.5269 51.7422 33.5539 52.0191 32.6766 52.473C32.393 52.5996 32.1824 52.6832 32.0449 52.7238C31.2137 52.9676 30.4172 52.8851 29.6555 52.4765C28.6523 51.8656 28.1512 51.0047 28.1519 49.8937C28.1543 46.0242 28.1551 42.1941 28.1543 38.4035C28.1543 37.8113 28.1871 37.3879 28.2527 37.1332C28.4637 36.3152 29.0086 35.7469 29.6637 35.2605C33.4863 32.4199 39.0656 32.407 42.9879 35.0941C43.0238 35.1191 43.0598 35.1191 43.0957 35.0941C46.9383 32.4445 52.4016 32.4281 56.2277 35.1211ZM32.7316 37.316C32.3191 37.5097 31.9332 37.7613 31.5738 38.0707C31.5584 38.0839 31.546 38.1004 31.5375 38.119C31.529 38.1376 31.5246 38.1579 31.5246 38.1785V49.2152C31.5246 49.2195 31.5257 49.2237 31.5278 49.2275C31.5298 49.2313 31.5328 49.2345 31.5364 49.2368C31.54 49.2391 31.5442 49.2405 31.5484 49.2408C31.5527 49.2412 31.557 49.2404 31.5609 49.2387C34.8125 47.8738 38.0684 47.8855 41.3285 49.2738C41.331 49.2748 41.3337 49.2751 41.3363 49.2748C41.3389 49.2745 41.3414 49.2735 41.3436 49.272C41.3458 49.2705 41.3476 49.2685 41.3489 49.2662C41.3501 49.2638 41.3508 49.2612 41.3508 49.2586V38.1773C41.3508 38.1686 41.3488 38.1599 41.345 38.152C41.3411 38.1441 41.3355 38.1371 41.3285 38.1316C38.9074 36.1746 35.4445 36.041 32.7316 37.316ZM44.7656 49.2867C48.0508 47.9555 51.2941 47.9336 54.4957 49.2211C54.5324 49.2359 54.5508 49.2234 54.5508 49.1836V38.134C54.5508 38.1211 54.5478 38.1085 54.5421 38.0969C54.5364 38.0853 54.5282 38.0752 54.518 38.0672C53.8289 37.5211 53.0793 37.1265 52.2691 36.8836C49.6922 36.1101 46.9055 36.4371 44.7785 38.1047C44.7457 38.1305 44.7293 38.1637 44.7293 38.2043V49.2621C44.7294 49.2665 44.7305 49.2709 44.7326 49.2748C44.7347 49.2787 44.7377 49.282 44.7413 49.2844C44.7449 49.2869 44.749 49.2883 44.7532 49.2887C44.7575 49.2891 44.7617 49.2884 44.7656 49.2867Z" fill="#6BE1A6"/>
<path d="M32.7316 37.316C35.4445 36.041 38.9074 36.1746 41.3285 38.1316C41.3355 38.1371 41.3411 38.1441 41.345 38.152C41.3488 38.1599 41.3508 38.1686 41.3508 38.1773V49.2586C41.3508 49.2612 41.3501 49.2638 41.3489 49.2662C41.3476 49.2685 41.3458 49.2705 41.3436 49.272C41.3415 49.2735 41.3389 49.2745 41.3363 49.2748C41.3337 49.2751 41.331 49.2748 41.3285 49.2738C38.0684 47.8855 34.8125 47.8738 31.5609 49.2387C31.557 49.2404 31.5527 49.2412 31.5484 49.2408C31.5442 49.2405 31.54 49.2391 31.5364 49.2368C31.5328 49.2345 31.5298 49.2313 31.5278 49.2275C31.5257 49.2237 31.5246 49.2195 31.5246 49.2152V38.1785C31.5246 38.1579 31.529 38.1376 31.5375 38.119C31.546 38.1004 31.5584 38.0839 31.5738 38.0707C31.9332 37.7613 32.3191 37.5098 32.7316 37.316Z" fill="white"/>
<path d="M44.7656 49.2867C44.7617 49.2885 44.7575 49.2892 44.7532 49.2888C44.749 49.2884 44.7449 49.2869 44.7413 49.2845C44.7377 49.282 44.7347 49.2787 44.7326 49.2748C44.7305 49.2709 44.7294 49.2666 44.7293 49.2621V38.2043C44.7293 38.1637 44.7457 38.1305 44.7785 38.1047C46.9055 36.4371 49.6922 36.1102 52.2691 36.8836C53.0793 37.1266 53.8289 37.5211 54.518 38.0672C54.5282 38.0752 54.5364 38.0853 54.5421 38.0969C54.5478 38.1085 54.5508 38.1212 54.5508 38.134V49.1836C54.5508 49.2234 54.5324 49.2359 54.4957 49.2211C51.2941 47.9336 48.0508 47.9555 44.7656 49.2867Z" fill="white"/>
<path d="M40.1906 52.4789L32.6766 52.473C33.5539 52.0191 34.527 51.7422 35.5957 51.6422C37.1723 51.4938 38.6758 51.7484 40.1062 52.4063C40.1609 52.4313 40.1891 52.4555 40.1906 52.4789Z" fill="#CDF6F9"/>
<path d="M52.5691 52.0969C51.9324 52.3375 51.2844 52.4606 50.625 52.466C49.0555 52.4778 47.4676 52.4797 45.8613 52.4719C46.759 52.0157 47.741 51.7403 48.8074 51.6457C50.127 51.5285 51.3809 51.6789 52.5691 52.0969Z" fill="#CDF6F9"/>
</svg>
