<svg width="60" height="60" viewBox="0 0 60 60" fill="none" xmlns="http://www.w3.org/2000/svg">
<path d="M54.559 11.857C54.559 10.7095 54.1031 9.60906 53.2918 8.79768C52.4804 7.98629 51.3799 7.53046 50.2324 7.53046H9.7582C8.61073 7.53046 7.51025 7.98629 6.69886 8.79768C5.88747 9.60906 5.43164 10.7095 5.43164 11.857V37.7133C5.43164 38.8607 5.88747 39.9612 6.69886 40.7726C7.51025 41.584 8.61073 42.0398 9.7582 42.0398H50.2324C51.3799 42.0398 52.4804 41.584 53.2918 40.7726C54.1031 39.9612 54.559 38.8607 54.559 37.7133V11.857Z" stroke="#6AC3E4" stroke-width="5"/>
<path d="M34.9805 45.4418C34.9805 45.4337 34.9773 45.426 34.9715 45.4202C34.9658 45.4145 34.9581 45.4113 34.95 45.4113H25.05C25.0419 45.4113 25.0342 45.4145 25.0285 45.4202C25.0227 45.426 25.0195 45.4337 25.0195 45.4418V52.4379C25.0195 52.446 25.0227 52.4537 25.0285 52.4594C25.0342 52.4651 25.0419 52.4683 25.05 52.4683H34.95C34.9581 52.4683 34.9658 52.4651 34.9715 52.4594C34.9773 52.4537 34.9805 52.446 34.9805 52.4379V45.4418Z" stroke="#83C8E7" stroke-width="5"/>
<path d="M29.966 16.2539C26.1539 13.5926 20.6754 13.5797 16.8644 16.2328C15.7887 16.9816 15.0902 17.8148 15.109 19.1801C15.1207 19.9754 15.1203 23.8602 15.1078 30.8344C15.107 31.218 15.1512 31.5672 15.2402 31.882C15.6609 33.382 17.1527 34.1906 18.6492 33.9598C19.0664 33.8953 19.466 33.6937 19.8422 33.5098C21.9281 32.4926 24.4828 32.5324 26.5969 33.3492C27.4156 33.6656 28.0875 34.0973 28.6125 34.6441C29.393 35.4562 30.5051 35.5898 31.323 34.6969C32.0531 33.9 33.2051 33.3363 34.2457 33.0609C36.3996 32.4902 38.5242 32.6871 40.4871 33.6703C42.1617 34.5082 44.2629 33.6996 44.7668 31.8551C44.8558 31.5293 44.8992 31.1687 44.8969 30.7734C44.8758 26.9594 44.875 23.1828 44.8945 19.4437C44.9015 18.1617 44.5769 17.3391 43.5375 16.5328C39.7324 13.582 33.9785 13.493 30.0363 16.2539C30.026 16.2612 30.0137 16.2651 30.0012 16.2651C29.9886 16.2651 29.9763 16.2612 29.966 16.2539Z" stroke="#6AC3E4" stroke-width="5"/>
<path d="M20.5594 18.0949C19.8172 18.3441 19.1418 18.716 18.5332 19.2105C18.5027 19.2355 18.4875 19.268 18.4875 19.3078V30.3281C18.4875 30.3773 18.5101 30.3926 18.5555 30.3738C21.7914 29.0168 25.0285 29.0277 28.2668 30.4066C28.2933 30.4184 28.3066 30.4094 28.3066 30.3797V19.3406C28.3066 19.3008 28.2914 19.2687 28.2609 19.2445C26.0953 17.5324 23.1246 17.2324 20.5594 18.0949Z" stroke="#83C8E7" stroke-width="5"/>
<path d="M38.6426 29.5687C39.6433 29.7176 40.5176 30.0094 41.4375 30.375C41.4883 30.3945 41.5137 30.3769 41.5137 30.3222V19.3078C41.5137 19.2656 41.4969 19.2308 41.4633 19.2035C38.809 17.0742 34.3594 17.0988 31.7473 19.248C31.7113 19.2769 31.6933 19.3148 31.6933 19.3617L31.6922 30.3984C31.6921 30.4045 31.6935 30.4104 31.6963 30.4158C31.6991 30.4211 31.7032 30.4257 31.7082 30.429C31.7132 30.4324 31.7189 30.4345 31.7249 30.4351C31.7309 30.4357 31.737 30.4347 31.7426 30.4324C33.9512 29.5012 36.2512 29.2133 38.6426 29.5687Z" stroke="#83C8E7" stroke-width="5"/>
<path d="M21.566 45.4102C17.6043 45.4125 13.6828 45.4121 9.80158 45.409C6.02931 45.4066 2.79025 42.7254 2.17501 39.0035C2.09455 38.5191 2.05509 37.8953 2.05665 37.132C2.07072 28.9383 2.07111 20.6309 2.05783 12.2098C2.05626 11.6254 2.09064 11.1109 2.16095 10.6664C2.67306 7.39454 5.22306 4.79649 8.47267 4.2668C8.9508 4.18946 9.68439 4.15118 10.6735 4.15196C23.7477 4.16758 36.7449 4.16954 49.6652 4.15782C50.4567 4.15704 51.0774 4.19336 51.5274 4.2668C54.7793 4.79649 57.3891 7.45313 57.8426 10.7098C57.9152 11.2332 57.9508 11.9711 57.9492 12.9234C57.9367 21.5227 57.9352 29.7297 57.9445 37.5445C57.9469 39.7164 57.2238 41.5555 55.7754 43.0617C54.5902 44.2938 53.1649 45.0418 51.4992 45.3059C50.9938 45.3863 50.2453 45.4246 49.2539 45.4207C45.6477 45.4066 42.0297 45.4047 38.4 45.4148C38.3688 45.4148 38.3531 45.4305 38.3531 45.4617V52.4391C38.3531 52.4475 38.3566 52.4555 38.3627 52.4614C38.3689 52.4674 38.3772 52.4707 38.386 52.4707C39.7727 52.4691 41.2356 52.4699 42.7746 52.473C43.6758 52.4742 44.4211 53.1152 44.4973 54.0258C44.5735 54.9434 43.8235 55.8387 42.8754 55.8387C34.5856 55.8387 26.0602 55.8406 17.2992 55.8445C15.375 55.8445 14.7891 53.3555 16.5457 52.6031C16.7824 52.5016 17.1606 52.4539 17.6801 52.4602C18.9559 52.4758 20.2617 52.4773 21.5977 52.4648C21.6114 52.4645 21.6246 52.459 21.6342 52.4493C21.6438 52.4397 21.6492 52.4268 21.6492 52.4133V45.4934C21.6492 45.4379 21.6215 45.4102 21.566 45.4102ZM54.559 11.857C54.559 10.7096 54.1032 9.60908 53.2918 8.79769C52.4804 7.98631 51.3799 7.53047 50.2324 7.53047H9.75822C8.61074 7.53047 7.51026 7.98631 6.69888 8.79769C5.88749 9.60908 5.43165 10.7096 5.43165 11.857V37.7133C5.43165 38.8608 5.88749 39.9612 6.69888 40.7726C7.51026 41.584 8.61074 42.0398 9.75822 42.0398H50.2324C51.3799 42.0398 52.4804 41.584 53.2918 40.7726C54.1032 39.9612 54.559 38.8608 54.559 37.7133V11.857ZM34.9805 45.4418C34.9805 45.4337 34.9773 45.426 34.9716 45.4203C34.9658 45.4145 34.9581 45.4113 34.95 45.4113H25.05C25.0419 45.4113 25.0342 45.4145 25.0285 45.4203C25.0228 45.426 25.0195 45.4337 25.0195 45.4418V52.4379C25.0195 52.446 25.0228 52.4537 25.0285 52.4594C25.0342 52.4651 25.0419 52.4684 25.05 52.4684H34.95C34.9581 52.4684 34.9658 52.4651 34.9716 52.4594C34.9773 52.4537 34.9805 52.446 34.9805 52.4379V45.4418Z" fill="#6BE1A6"/>
<path d="M54.559 37.7133C54.559 38.8607 54.1031 39.9612 53.2918 40.7726C52.4804 41.584 51.3799 42.0398 50.2324 42.0398H9.7582C8.61073 42.0398 7.51025 41.584 6.69886 40.7726C5.88747 39.9612 5.43164 38.8607 5.43164 37.7133V11.857C5.43164 10.7095 5.88747 9.60906 6.69886 8.79768C7.51025 7.98629 8.61073 7.53046 9.7582 7.53046H50.2324C51.3799 7.53046 52.4804 7.98629 53.2918 8.79768C54.1031 9.60906 54.559 10.7095 54.559 11.857V37.7133ZM29.966 16.2539C26.1539 13.5926 20.6754 13.5797 16.8645 16.2328C15.7887 16.9816 15.0902 17.8148 15.109 19.1801C15.1207 19.9754 15.1203 23.8601 15.1078 30.8344C15.107 31.218 15.1512 31.5672 15.2402 31.882C15.6609 33.382 17.1527 34.1906 18.6492 33.9598C19.0664 33.8953 19.466 33.6937 19.8422 33.5098C21.9281 32.4926 24.4828 32.5324 26.5969 33.3492C27.4156 33.6656 28.0875 34.0973 28.6125 34.6441C29.393 35.4562 30.5051 35.5898 31.323 34.6969C32.0531 33.9 33.2051 33.3363 34.2457 33.0609C36.3996 32.4902 38.5242 32.6871 40.4871 33.6703C42.1617 34.5082 44.2629 33.6996 44.7668 31.8551C44.8559 31.5293 44.8992 31.1687 44.8969 30.7734C44.8758 26.9594 44.875 23.1828 44.8945 19.4437C44.9016 18.1617 44.577 17.3391 43.5375 16.5328C39.7324 13.582 33.9785 13.493 30.0363 16.2539C30.026 16.2612 30.0138 16.2651 30.0012 16.2651C29.9886 16.2651 29.9763 16.2612 29.966 16.2539Z" fill="#CDF6F9"/>
<path d="M29.966 16.2539C29.9763 16.2612 29.9886 16.2651 30.0012 16.2651C30.0137 16.2651 30.026 16.2612 30.0363 16.2539C33.9785 13.493 39.7324 13.582 43.5375 16.5328C44.5769 17.3391 44.9016 18.1617 44.8945 19.4437C44.875 23.1828 44.8758 26.9594 44.8969 30.7734C44.8992 31.1687 44.8558 31.5293 44.7668 31.8551C44.2629 33.6996 42.1617 34.5082 40.4871 33.6703C38.5242 32.6871 36.3996 32.4902 34.2457 33.0609C33.2051 33.3363 32.0531 33.9 31.323 34.6969C30.5051 35.5898 29.393 35.4562 28.6125 34.6441C28.0875 34.0973 27.4156 33.6656 26.5969 33.3492C24.4828 32.5324 21.9281 32.4926 19.8422 33.5098C19.466 33.6937 19.0664 33.8953 18.6492 33.9598C17.1527 34.1906 15.6609 33.382 15.2402 31.882C15.1512 31.5672 15.107 31.218 15.1078 30.8344C15.1203 23.8602 15.1207 19.9754 15.109 19.1801C15.0902 17.8148 15.7887 16.9816 16.8644 16.2328C20.6754 13.5797 26.1539 13.5926 29.966 16.2539ZM20.5594 18.0949C19.8172 18.3441 19.1418 18.716 18.5332 19.2105C18.5027 19.2355 18.4875 19.268 18.4875 19.3078V30.3281C18.4875 30.3773 18.5101 30.3926 18.5555 30.3738C21.7914 29.0168 25.0285 29.0277 28.2668 30.4066C28.2933 30.4184 28.3066 30.4094 28.3066 30.3797V19.3406C28.3066 19.3008 28.2914 19.2687 28.2609 19.2445C26.0953 17.5324 23.1246 17.2324 20.5594 18.0949ZM38.6426 29.5687C39.6433 29.7176 40.5176 30.0094 41.4375 30.375C41.4883 30.3945 41.5137 30.3769 41.5137 30.3223V19.3078C41.5137 19.2656 41.4969 19.2309 41.4633 19.2035C38.809 17.0742 34.3594 17.0988 31.7473 19.248C31.7113 19.2769 31.6933 19.3148 31.6933 19.3617L31.6922 30.3984C31.6921 30.4045 31.6935 30.4104 31.6963 30.4158C31.6991 30.4211 31.7032 30.4257 31.7082 30.429C31.7132 30.4324 31.7189 30.4345 31.7249 30.4351C31.7309 30.4357 31.737 30.4348 31.7426 30.4324C33.9512 29.5012 36.2512 29.2133 38.6426 29.5687Z" fill="#6BE1A6"/>
<path d="M20.5594 18.0949C23.1246 17.2324 26.0953 17.5324 28.2609 19.2445C28.2914 19.2687 28.3066 19.3008 28.3066 19.3406V30.3797C28.3066 30.4094 28.2933 30.4184 28.2668 30.4066C25.0285 29.0277 21.7914 29.0168 18.5555 30.3738C18.5101 30.3926 18.4875 30.3773 18.4875 30.3281V19.3078C18.4875 19.268 18.5027 19.2355 18.5332 19.2105C19.1418 18.716 19.8172 18.3441 20.5594 18.0949Z" fill="white"/>
<path d="M41.4375 30.375C40.5176 30.0094 39.6434 29.7176 38.6426 29.5688C36.2512 29.2133 33.9512 29.5012 31.7426 30.4324C31.737 30.4348 31.731 30.4357 31.725 30.4351C31.719 30.4345 31.7132 30.4324 31.7082 30.4291C31.7032 30.4257 31.6991 30.4211 31.6963 30.4158C31.6935 30.4104 31.6921 30.4045 31.6922 30.3985L31.6934 19.3617C31.6934 19.3149 31.7113 19.277 31.7473 19.2481C34.3594 17.0988 38.809 17.0742 41.4633 19.2035C41.4969 19.2309 41.5137 19.2656 41.5137 19.3078V30.3223C41.5137 30.377 41.4883 30.3945 41.4375 30.375Z" fill="white"/>
<path d="M34.95 45.4113H25.05C25.0332 45.4113 25.0195 45.425 25.0195 45.4418V52.4379C25.0195 52.4547 25.0332 52.4683 25.05 52.4683H34.95C34.9668 52.4683 34.9805 52.4547 34.9805 52.4379V45.4418C34.9805 45.425 34.9668 45.4113 34.95 45.4113Z" fill="white"/>
</svg>
