<svg width="60" height="60" viewBox="0 0 60 60" fill="none" xmlns="http://www.w3.org/2000/svg">
<path d="M50.9074 12.9797C50.9074 11.9238 50.291 11.0285 49.2984 10.6969C49.0719 10.6211 48.55 10.5832 47.7328 10.5832C34.8742 10.584 22.7621 10.591 11.3965 10.6043C10.8262 10.6051 10.3363 10.7793 9.92695 11.1269C9.36914 11.5996 9.09062 12.2293 9.0914 13.016C9.09375 21.5629 9.09375 30.1105 9.0914 38.659C9.0914 38.7074 9.11562 38.7316 9.16406 38.7316L50.8605 38.7328C50.8926 38.7328 50.9086 38.7168 50.9086 38.6848C50.9102 30.1355 50.9098 21.5672 50.9074 12.9797Z" stroke="#83C8E7" stroke-width="5"/>
<path d="M54.4676 42.1066H5.54179C5.52487 42.1066 5.5081 42.11 5.49246 42.1164C5.47682 42.1229 5.46261 42.1324 5.45064 42.1444C5.43867 42.1564 5.42918 42.1706 5.4227 42.1862C5.41622 42.2018 5.41289 42.2186 5.41289 42.2355V43.684C5.41289 44.4402 5.5642 45.189 5.85819 45.8877C6.15218 46.5864 6.58309 47.2212 7.12631 47.7559C7.66954 48.2907 8.31444 48.7148 9.02419 49.0042C9.73394 49.2936 10.4947 49.4426 11.2629 49.4426H48.7465C49.5147 49.4426 50.2754 49.2936 50.9852 49.0042C51.6949 48.7148 52.3398 48.2907 52.8831 47.7559C53.4263 47.2212 53.8572 46.5864 54.1512 45.8877C54.4452 45.189 54.5965 44.4402 54.5965 43.684V42.2355C54.5965 42.2013 54.5829 42.1686 54.5587 42.1444C54.5345 42.1202 54.5018 42.1066 54.4676 42.1066Z" stroke="#6AC3E4" stroke-width="5"/>
<path d="M35.577 29.1433C37.5973 27.3891 38.5652 24.6914 38.3004 22.1566C37.7953 17.3285 33.2625 13.8 28.3617 14.8043C25.0406 15.4863 22.4836 18.0433 21.8098 21.3691C21.2191 24.2906 22.2504 27.15 24.4371 29.1668C24.444 29.1731 24.4491 29.1811 24.4522 29.1899C24.4553 29.1987 24.4562 29.2081 24.4548 29.2174C24.4534 29.2266 24.4498 29.2354 24.4443 29.2429C24.4387 29.2504 24.4315 29.2565 24.4231 29.2605C23.1801 29.8769 22.1688 30.7051 21.3891 31.7449C20.8313 32.4879 20.6578 33.3516 21.3023 34.1027C22.0395 34.9629 23.3531 34.8726 23.9836 33.9246C24.9422 32.4867 26.7094 31.7262 28.3828 31.4683C30.6563 31.118 33.2402 31.4683 35.059 32.8793C35.4082 33.1512 35.6984 33.4633 35.9297 33.8156C36.2777 34.3453 36.7875 34.684 37.4461 34.6676C38.4609 34.643 39.1992 33.7793 39.0773 32.7715C39.0367 32.4308 38.8602 32.0598 38.5477 31.6582C37.7496 30.6293 36.7641 29.8547 35.591 29.2652C35.5254 29.2316 35.5207 29.191 35.577 29.1433Z" stroke="#83C8E7" stroke-width="5"/>
<path d="M34.9699 22.991C34.9699 22.3384 34.8414 21.6921 34.5916 21.0891C34.3418 20.4861 33.9758 19.9382 33.5143 19.4767C33.0528 19.0152 32.5049 18.6492 31.9019 18.3994C31.2989 18.1496 30.6527 18.0211 30 18.0211C28.6819 18.0211 27.4178 18.5447 26.4857 19.4767C25.5537 20.4088 25.0301 21.6729 25.0301 22.991C25.0301 24.3091 25.5537 25.5732 26.4857 26.5053C27.4178 27.4373 28.6819 27.9609 30 27.9609C30.6527 27.9609 31.2989 27.8324 31.9019 27.5826C32.5049 27.3329 33.0528 26.9668 33.5143 26.5053C33.9758 26.0438 34.3418 25.4959 34.5916 24.8929C34.8414 24.2899 34.9699 23.6437 34.9699 22.991Z" stroke="#6AC3E4" stroke-width="5"/>
<path d="M54.3703 38.7422C55.5633 38.6414 56.6707 39.1172 57.334 40.0547C57.7598 40.6586 57.9676 41.3309 57.9574 42.0715C57.9496 42.5801 57.9426 43.0684 57.9363 43.5363C57.9285 44.1309 57.8973 44.6238 57.8426 45.0152C57.2977 48.948 54.2789 52.0676 50.3449 52.6734C49.7684 52.7625 49.0277 52.8051 48.1231 52.8012C40.0199 52.7715 27.9434 52.7715 11.8934 52.8012C10.9715 52.8027 10.2383 52.7621 9.69375 52.6793C5.32969 52.0184 2.16563 48.348 2.06953 43.9254C2.05547 43.2777 2.05274 42.6332 2.06133 41.9918C2.06719 41.5102 2.14102 41.0191 2.35313 40.5809C2.8793 39.4957 3.90352 38.7738 5.13047 38.7387C5.30547 38.7332 5.47852 38.732 5.64961 38.7352C5.6918 38.7359 5.71289 38.7152 5.71289 38.673C5.71602 30.1465 5.71797 21.6211 5.71875 13.0969C5.71875 11.4 6.27071 10.0008 7.37461 8.89922C8.19258 8.08281 9.14571 7.5625 10.234 7.33828C10.6801 7.24687 11.3504 7.20156 12.2449 7.20234C24.4168 7.21328 36.4734 7.21445 48.4148 7.20586C50.0258 7.20508 51.4 7.73945 52.5375 8.80898C53.3938 9.61445 53.9356 10.5965 54.1629 11.7551C54.2504 12.1973 54.2934 12.8906 54.2918 13.8352C54.2809 22.0414 54.2789 30.3176 54.2859 38.6637C54.2859 38.7207 54.3141 38.7469 54.3703 38.7422ZM50.9074 12.9797C50.9074 11.9238 50.291 11.0285 49.2984 10.6969C49.0719 10.6211 48.55 10.5832 47.7328 10.5832C34.8742 10.584 22.7621 10.591 11.3965 10.6043C10.8262 10.6051 10.3363 10.7793 9.92696 11.127C9.36914 11.5996 9.09063 12.2293 9.09141 13.016C9.09375 21.5629 9.09375 30.1105 9.09141 38.659C9.09141 38.7074 9.11563 38.7316 9.16407 38.7316L50.8605 38.7328C50.8926 38.7328 50.9086 38.7168 50.9086 38.6848C50.9102 30.1355 50.9098 21.5672 50.9074 12.9797ZM54.4676 42.1066H5.5418C5.52487 42.1066 5.50811 42.11 5.49247 42.1165C5.47683 42.1229 5.46262 42.1324 5.45065 42.1444C5.43868 42.1564 5.42918 42.1706 5.42271 42.1862C5.41623 42.2019 5.41289 42.2186 5.41289 42.2355V43.684C5.41289 44.4402 5.56421 45.189 5.8582 45.8877C6.15219 46.5864 6.5831 47.2212 7.12632 47.7559C7.66954 48.2907 8.31444 48.7148 9.0242 49.0042C9.73395 49.2936 10.4947 49.4426 11.2629 49.4426H48.7465C49.5147 49.4426 50.2754 49.2936 50.9852 49.0042C51.6949 48.7148 52.3398 48.2907 52.8831 47.7559C53.4263 47.2212 53.8572 46.5864 54.1512 45.8877C54.4452 45.189 54.5965 44.4402 54.5965 43.684V42.2355C54.5965 42.2014 54.5829 42.1686 54.5587 42.1444C54.5346 42.1202 54.5018 42.1066 54.4676 42.1066Z" fill="#6BE1A6"/>
<path d="M49.2984 10.6969C50.291 11.0285 50.9074 11.9238 50.9074 12.9797C50.9098 21.5672 50.9102 30.1355 50.9086 38.6848C50.9086 38.7168 50.8926 38.7328 50.8605 38.7328L9.16406 38.7316C9.11562 38.7316 9.0914 38.7074 9.0914 38.659C9.09375 30.1105 9.09375 21.5629 9.0914 13.016C9.09062 12.2293 9.36914 11.5996 9.92695 11.1269C10.3363 10.7793 10.8262 10.6051 11.3965 10.6043C22.7621 10.591 34.8742 10.584 47.7328 10.5832C48.55 10.5832 49.0719 10.6211 49.2984 10.6969ZM35.5769 29.1433C37.5973 27.3891 38.5652 24.6914 38.3004 22.1566C37.7953 17.3285 33.2625 13.8 28.3617 14.8043C25.0406 15.4863 22.4836 18.0433 21.8098 21.3691C21.2191 24.2906 22.2504 27.15 24.4371 29.1668C24.4439 29.1731 24.4491 29.1811 24.4522 29.1899C24.4553 29.1987 24.4562 29.2081 24.4548 29.2174C24.4534 29.2266 24.4498 29.2354 24.4443 29.2429C24.4387 29.2504 24.4314 29.2565 24.423 29.2605C23.1801 29.8769 22.1687 30.7051 21.3891 31.7449C20.8312 32.4879 20.6578 33.3516 21.3023 34.1027C22.0394 34.9629 23.3531 34.8726 23.9836 33.9246C24.9422 32.4867 26.7094 31.7262 28.3828 31.4683C30.6562 31.118 33.2402 31.4683 35.059 32.8793C35.4082 33.1512 35.6984 33.4633 35.9297 33.8156C36.2777 34.3453 36.7875 34.684 37.4461 34.6676C38.4609 34.643 39.1992 33.7793 39.0773 32.7715C39.0367 32.4308 38.8602 32.0598 38.5477 31.6582C37.7496 30.6293 36.7641 29.8547 35.591 29.2652C35.5254 29.2316 35.5207 29.191 35.5769 29.1433Z" fill="white"/>
<path d="M35.591 29.2652C36.7641 29.8547 37.7496 30.6293 38.5477 31.6582C38.8602 32.0598 39.0367 32.4308 39.0773 32.7715C39.1992 33.7793 38.4609 34.643 37.4461 34.6676C36.7875 34.684 36.2777 34.3453 35.9297 33.8156C35.6984 33.4633 35.4082 33.1512 35.059 32.8793C33.2402 31.4683 30.6563 31.118 28.3828 31.4683C26.7094 31.7262 24.9422 32.4867 23.9836 33.9246C23.3531 34.8726 22.0395 34.9629 21.3023 34.1027C20.6578 33.3516 20.8313 32.4879 21.3891 31.7449C22.1688 30.7051 23.1801 29.8769 24.4231 29.2605C24.4315 29.2565 24.4387 29.2504 24.4443 29.2429C24.4498 29.2354 24.4534 29.2266 24.4548 29.2174C24.4562 29.2081 24.4553 29.1987 24.4522 29.1899C24.4491 29.1811 24.444 29.1731 24.4371 29.1668C22.2504 27.15 21.2191 24.2906 21.8098 21.3691C22.4836 18.0433 25.0406 15.4863 28.3617 14.8043C33.2625 13.8 37.7953 17.3285 38.3004 22.1566C38.5652 24.6914 37.5973 27.3891 35.577 29.1433C35.5207 29.191 35.5254 29.2316 35.591 29.2652ZM34.9699 22.991C34.9699 22.3383 34.8414 21.6921 34.5916 21.0891C34.3419 20.4861 33.9758 19.9382 33.5143 19.4767C33.0528 19.0152 32.5049 18.6492 31.9019 18.3994C31.2989 18.1496 30.6527 18.0211 30 18.0211C28.6819 18.0211 27.4178 18.5447 26.4857 19.4767C25.5537 20.4088 25.0301 21.6729 25.0301 22.991C25.0301 24.3091 25.5537 25.5732 26.4857 26.5053C27.4178 27.4373 28.6819 27.9609 30 27.9609C30.6527 27.9609 31.2989 27.8324 31.9019 27.5826C32.5049 27.3329 33.0528 26.9668 33.5143 26.5053C33.9758 26.0438 34.3419 25.4959 34.5916 24.8929C34.8414 24.2899 34.9699 23.6437 34.9699 22.991Z" fill="#6BE1A6"/>
<path d="M30 27.9609C32.7448 27.9609 34.9699 25.7358 34.9699 22.991C34.9699 20.2462 32.7448 18.0211 30 18.0211C27.2552 18.0211 25.0301 20.2462 25.0301 22.991C25.0301 25.7358 27.2552 27.9609 30 27.9609Z" fill="#CDF6F9"/>
<path d="M54.4676 42.1066C54.5018 42.1066 54.5345 42.1202 54.5587 42.1444C54.5829 42.1686 54.5965 42.2013 54.5965 42.2355V43.684C54.5965 44.4402 54.4452 45.189 54.1512 45.8877C53.8572 46.5864 53.4263 47.2212 52.8831 47.7559C52.3398 48.2907 51.6949 48.7148 50.9852 49.0042C50.2754 49.2936 49.5147 49.4426 48.7465 49.4426H11.2629C10.4947 49.4426 9.73394 49.2936 9.02419 49.0042C8.31444 48.7148 7.66954 48.2907 7.12631 47.7559C6.58309 47.2212 6.15218 46.5864 5.85819 45.8877C5.5642 45.189 5.41289 44.4402 5.41289 43.684V42.2355C5.41289 42.2186 5.41622 42.2018 5.4227 42.1862C5.42918 42.1706 5.43867 42.1564 5.45064 42.1444C5.46261 42.1324 5.47682 42.1229 5.49246 42.1164C5.5081 42.11 5.52487 42.1066 5.54179 42.1066H54.4676Z" fill="#CDF6F9"/>
</svg>
