<svg width="60" height="60" viewBox="0 0 60 60" fill="none" xmlns="http://www.w3.org/2000/svg">
<path d="M50.6965 34.7977C49.9277 34.707 49.4203 34.3789 49.1742 33.8133C49.0563 33.5414 48.9977 33.1465 48.9985 32.6285C49.0156 24.684 49.0164 16.4699 49.0008 7.98634C48.9996 6.91525 48.3832 5.97072 47.386 5.59689C47.0953 5.48751 46.6789 5.43322 46.1367 5.434C36.6047 5.44416 27.0684 5.44572 17.5278 5.43869C17.5181 5.43869 17.5089 5.44251 17.5021 5.44933C17.4953 5.45614 17.4914 5.46538 17.4914 5.47501V43.2422C17.4914 43.2565 17.4971 43.2702 17.5072 43.2803C17.5173 43.2904 17.531 43.2961 17.5453 43.2961C21.1375 43.3078 24.7606 43.3063 28.4145 43.2914C28.977 43.2891 29.3953 43.3492 29.6695 43.4719C30.2406 43.7274 30.5637 44.2277 30.6387 44.9731" stroke="#74BDD1" stroke-width="5"/>
<path d="M10.05 5.62384C8.45391 6.15353 7.29961 7.63009 7.29961 9.33048C7.29649 21.0117 7.2961 32.6891 7.29844 44.3625C7.29844 44.4219 7.32383 44.436 7.37461 44.4047C8.74922 43.5563 10.1109 43.2633 11.7703 43.2938C12.5273 43.3078 13.2938 43.307 14.0695 43.2914C14.0832 43.2914 14.0963 43.286 14.106 43.2763C14.1157 43.2667 14.1211 43.2535 14.1211 43.2399V5.509C14.1211 5.45978 14.0961 5.43556 14.0461 5.43634C13.268 5.44728 12.4504 5.4465 11.5934 5.434C10.9723 5.4254 10.4578 5.48869 10.05 5.62384Z" stroke="#74BDD1" stroke-width="5"/>
<path d="M43.2938 16.1191C43.2946 15.6799 43.1208 15.2585 42.8108 14.9474C42.5008 14.6363 42.08 14.4611 41.6408 14.4604L24.8713 14.4311C24.6539 14.4307 24.4385 14.4732 24.2374 14.556C24.0364 14.6389 23.8536 14.7606 23.6996 14.914C23.5456 15.0675 23.4233 15.2499 23.3397 15.4506C23.2562 15.6514 23.2129 15.8666 23.2126 16.0841L23.2125 16.145C23.2117 16.5842 23.3854 17.0056 23.6954 17.3167C24.0054 17.6278 24.4263 17.803 24.8654 17.8037L41.6349 17.833C41.8524 17.8334 42.0678 17.7909 42.2688 17.7081C42.4699 17.6252 42.6526 17.5036 42.8067 17.3501C42.9607 17.1966 43.083 17.0143 43.1665 16.8135C43.2501 16.6127 43.2933 16.3975 43.2937 16.18L43.2938 16.1191Z" stroke="#74BDD1" stroke-width="5"/>
<path d="M38.9812 23.1129C38.9812 22.6799 38.8093 22.2647 38.5031 21.9586C38.197 21.6525 37.7818 21.4805 37.3488 21.4805H29.1574C28.7245 21.4805 28.3093 21.6525 28.0031 21.9586C27.697 22.2647 27.525 22.6799 27.525 23.1129V23.2113C27.525 23.6443 27.697 24.0595 28.0031 24.3656C28.3093 24.6718 28.7245 24.8437 29.1574 24.8437H37.3488C37.7818 24.8437 38.197 24.6718 38.5031 24.3656C38.8093 24.0595 38.9812 23.6443 38.9812 23.2113V23.1129Z" stroke="#74BDD1" stroke-width="5"/>
<path d="M50.6965 34.7977C49.9277 34.707 49.4203 34.3789 49.1742 33.8133C49.0563 33.5414 48.9977 33.1465 48.9984 32.6285C49.0156 24.684 49.0164 16.4699 49.0008 7.98634C48.9996 6.91525 48.3832 5.97072 47.3859 5.59689C47.0953 5.48751 46.6789 5.43322 46.1367 5.434C36.6047 5.44415 27.0684 5.44572 17.5277 5.43868C17.5181 5.43868 17.5089 5.44251 17.502 5.44932C17.4952 5.45614 17.4914 5.46538 17.4914 5.47501V43.2422C17.4914 43.2565 17.4971 43.2702 17.5072 43.2803C17.5173 43.2904 17.531 43.2961 17.5453 43.2961C21.1375 43.3078 24.7605 43.3063 28.4145 43.2914C28.977 43.2891 29.3953 43.3492 29.6695 43.4719C30.2406 43.7274 30.5637 44.2277 30.6387 44.9731C30.525 46.0852 29.8207 46.6817 28.7613 46.6793C23.1254 46.6676 17.4391 46.6645 11.7023 46.6699C10.9523 46.6707 10.3984 46.7231 10.0406 46.827C7.03594 47.7 6.52852 51.9457 8.85469 53.7809C9.60469 54.3727 10.4297 54.5613 11.4457 54.5625C18.0277 54.5688 24.9484 54.5649 32.2078 54.5508C33.2625 54.5496 33.9703 55.1379 34.0922 56.2488C34.0102 56.9988 33.6848 57.5024 33.116 57.7594C32.8574 57.8766 32.5305 57.9352 32.1352 57.9352C25.0328 57.9367 18.1141 57.9356 11.3789 57.9317C10.1883 57.9309 9.10313 57.6906 8.12344 57.211C5.59922 55.9758 3.91875 53.4891 3.92227 50.6473C3.93477 37.1418 3.93321 23.6945 3.91758 10.3055C3.91602 9.29689 3.96172 8.53986 4.05469 8.03439C4.60078 5.06603 7.00078 2.6965 9.97735 2.18087C10.4648 2.0965 11.175 2.05509 12.1078 2.05665C23.4664 2.0715 34.8563 2.07189 46.2773 2.05782C47.9633 2.05626 49.3859 2.60001 50.5453 3.68907C51.4453 4.53517 52.016 5.57345 52.2574 6.80392C52.3465 7.26017 52.3898 8.01486 52.3875 9.06798C52.3711 16.7555 52.3719 24.5711 52.3898 32.5149C52.3906 33.1008 52.3281 33.534 52.2023 33.8145C51.9461 34.3824 51.4441 34.7102 50.6965 34.7977ZM10.05 5.62384C8.45391 6.15353 7.29961 7.63009 7.29961 9.33048C7.29649 21.0117 7.2961 32.6891 7.29844 44.3625C7.29844 44.4219 7.32383 44.436 7.37461 44.4047C8.74922 43.5563 10.1109 43.2633 11.7703 43.2938C12.5273 43.3078 13.2938 43.307 14.0695 43.2914C14.0832 43.2914 14.0963 43.286 14.106 43.2763C14.1157 43.2666 14.1211 43.2535 14.1211 43.2399V5.509C14.1211 5.45978 14.0961 5.43556 14.0461 5.43634C13.268 5.44728 12.4504 5.4465 11.5934 5.434C10.9723 5.4254 10.4578 5.48868 10.05 5.62384Z" fill="#6BE1A6"/>
<path d="M7.29961 9.33048C7.29961 7.63009 8.45391 6.15353 10.05 5.62384C10.4578 5.48869 10.9723 5.4254 11.5934 5.434C12.4504 5.4465 13.268 5.44728 14.0461 5.43634C14.0961 5.43556 14.1211 5.45978 14.1211 5.509V43.2399C14.1211 43.2535 14.1157 43.2667 14.106 43.2763C14.0963 43.286 14.0832 43.2914 14.0695 43.2914C13.2938 43.307 12.5273 43.3078 11.7703 43.2938C10.1109 43.2633 8.74922 43.5563 7.37461 44.4047C7.32383 44.436 7.29844 44.4219 7.29844 44.3625C7.2961 32.6891 7.29649 21.0117 7.29961 9.33048Z" fill="#CDF6F9"/>
<path d="M50.6965 34.7977L50.6988 39.1781C46.341 37.8508 41.9777 36.5235 37.609 35.1961C35.4012 34.5246 33.1172 36.1195 33.1863 38.4891C33.1965 38.8188 33.2387 39.1047 33.3129 39.3469C33.8793 41.1938 34.4496 43.0649 35.0238 44.9602L30.6387 44.9731C30.5637 44.2277 30.2406 43.7274 29.6695 43.4719C29.3953 43.3492 28.9769 43.2891 28.4144 43.2914C24.7605 43.3063 21.1375 43.3078 17.5453 43.2961C17.531 43.2961 17.5173 43.2904 17.5072 43.2803C17.4971 43.2702 17.4914 43.2565 17.4914 43.2422V5.47501C17.4914 5.46538 17.4952 5.45614 17.502 5.44933C17.5088 5.44251 17.5181 5.43869 17.5277 5.43869C27.0683 5.44572 36.6047 5.44416 46.1367 5.434C46.6789 5.43322 47.0953 5.48751 47.3859 5.59689C48.3832 5.97072 48.9996 6.91525 49.0008 7.98634C49.0164 16.4699 49.0156 24.684 48.9984 32.6285C48.9976 33.1465 49.0562 33.5414 49.1742 33.8133C49.4203 34.3789 49.9277 34.707 50.6965 34.7977ZM43.2938 16.1191C43.2945 15.6799 43.1208 15.2585 42.8108 14.9474C42.5008 14.6363 42.08 14.4611 41.6408 14.4604L24.8713 14.4311C24.6539 14.4307 24.4385 14.4732 24.2374 14.556C24.0364 14.6389 23.8536 14.7605 23.6996 14.914C23.5456 15.0675 23.4233 15.2499 23.3397 15.4506C23.2561 15.6514 23.2129 15.8666 23.2126 16.0841L23.2125 16.145C23.2117 16.5842 23.3854 17.0056 23.6954 17.3167C24.0054 17.6278 24.4263 17.803 24.8654 17.8037L41.6349 17.833C41.8524 17.8334 42.0678 17.7909 42.2688 17.7081C42.4699 17.6252 42.6526 17.5036 42.8066 17.3501C42.9607 17.1966 43.083 17.0142 43.1665 16.8135C43.2501 16.6127 43.2933 16.3975 43.2937 16.18L43.2938 16.1191ZM38.9812 23.1129C38.9812 22.68 38.8093 22.2647 38.5031 21.9586C38.197 21.6525 37.7818 21.4805 37.3488 21.4805H29.1574C28.7245 21.4805 28.3093 21.6525 28.0031 21.9586C27.697 22.2647 27.525 22.68 27.525 23.1129V23.2113C27.525 23.6443 27.697 24.0595 28.0031 24.3656C28.3093 24.6718 28.7245 24.8438 29.1574 24.8438H37.3488C37.7818 24.8438 38.197 24.6718 38.5031 24.3656C38.8093 24.0595 38.9812 23.6443 38.9812 23.2113V23.1129Z" fill="#CDF6F9"/>
<path d="M41.6408 14.4604L24.8713 14.4311C23.9568 14.4295 23.2142 15.1695 23.2126 16.084L23.2125 16.145C23.2109 17.0595 23.9509 17.8021 24.8654 17.8037L41.6349 17.833C42.5494 17.8346 43.2921 17.0945 43.2937 16.18L43.2938 16.1191C43.2954 15.2046 42.5553 14.4619 41.6408 14.4604Z" fill="#6BE1A6"/>
<path d="M37.3488 21.4805H29.1574C28.2559 21.4805 27.525 22.2113 27.525 23.1129V23.2113C27.525 24.1129 28.2559 24.8437 29.1574 24.8437H37.3488C38.2504 24.8437 38.9812 24.1129 38.9812 23.2113V23.1129C38.9812 22.2113 38.2504 21.4805 37.3488 21.4805Z" fill="#6BE1A6"/>
<path d="M50.6988 39.1781C51.4715 39.4156 52.2422 39.6504 53.011 39.8824C53.7992 40.1199 54.3328 40.3336 54.6117 40.5234C56.9496 42.1183 56.4035 45.6433 53.761 46.5246C52.7422 46.8644 51.7246 47.2062 50.7082 47.55L47.0215 48.7957C46.984 48.8082 46.959 48.8328 46.9465 48.8695C46.1934 51.0937 45.4442 53.3183 44.6988 55.5433C44.634 55.7355 44.5371 55.9687 44.4082 56.243C43.6528 57.4156 42.6317 57.9746 41.3449 57.9199C40.1344 57.8683 39.1488 57.2859 38.5418 56.2488C38.4192 56.0183 38.3367 55.8332 38.2945 55.6933C37.1938 52.0933 36.1035 48.5156 35.0238 44.9601C34.4496 43.0648 33.8793 41.1937 33.3129 39.3469C33.2387 39.1047 33.1965 38.8187 33.1863 38.489C33.1172 36.1195 35.4012 34.5246 37.609 35.1961C41.9778 36.5234 46.341 37.8508 50.6988 39.1781ZM43.807 47.6519C44.0285 47.0039 44.4914 46.4203 45.0375 46.0465C45.3461 45.8355 45.8356 45.6195 46.5059 45.3984C48.5582 44.7211 50.5879 44.0398 52.5949 43.3547C52.6762 43.3265 52.6754 43.3 52.5926 43.275L36.6153 38.4223C36.6096 38.4205 36.6035 38.4203 36.5977 38.4218C36.5919 38.4232 36.5866 38.4262 36.5824 38.4304C36.5782 38.4346 36.5752 38.4399 36.5738 38.4457C36.5723 38.4515 36.5725 38.4576 36.5742 38.4633L41.4492 54.4875C41.4664 54.543 41.484 54.543 41.502 54.4875C42.2457 52.2414 43.0141 49.9629 43.807 47.6519Z" fill="#6BE1A6"/>
</svg>
